# xmcd
#
# Track frame offsets: 
#        150
#        18639
#        31049
#        43437
#        59164
#        74982
#        91779
#        105790
#        117800
#        135276
#        170800
#        187020
#
# Disc length: 2709 seconds
#
# Revision: 0
# Processed by: cddbd v1.5.2PL0 Copyright (c) Steve Scherf et al.
# Submitted via: ExactAudioCopyFreeDBPlugin 1.0
#
DISCID=aa0a930c
DTITLE=柴田聡子 - SHIBATA SATOKO LIVE SOUVENIR disc2
DYEAR=2015
DGENRE=
TTITLE0=こゆびなめぶるーす
TTITLE1=しかけの恋
TTITLE2=いいつたえ
TTITLE3=いない人はいない
TTITLE4=あさはか！
TTITLE5=しんけんなひとり
TTITLE6=騒ぎ
TTITLE7=（わたしが）ほんとうになったら
TTITLE8=海へ行こうか
TTITLE9=カープファンの子
TTITLE10=いじわる全集
TTITLE11=今日は山に
EXTD=
EXTT0=
EXTT1=
EXTT2=
EXTT3=
EXTT4=
EXTT5=
EXTT6=
EXTT7=
EXTT8=
EXTT9=
EXTT10=
EXTT11=
PLAYORDER=
